HIERARCHY
ROOT mixamorig:Hips
{
	OFFSET -0.000008 104.274872 1.554316
	CHANNELS 6 Xposition Yposition Zposition Xrotation Yrotation Zrotation
	JOINT mixamorig:Spine
	{
		OFFSET -0.000005 10.181595 0.131521
		CHANNELS 3 Xrotation Yrotation Zrotation
		JOINT mixamorig:Spine1
		{
			OFFSET -0.000000 9.893959 -1.470711
			CHANNELS 3 Xrotation Yrotation Zrotation
			JOINT mixamorig:Spine2
			{
				OFFSET -0.000000 9.220757 -1.370642
				CHANNELS 3 Xrotation Yrotation Zrotation
				JOINT mixamorig:Neck
				{
					OFFSET 0.000001 16.740417 -2.049038
					CHANNELS 3 Xrotation Yrotation Zrotation
					JOINT mixamorig:Head
					{
						OFFSET 0.000000 9.617874 1.685009
						CHANNELS 3 Xrotation Yrotation Zrotation
						JOINT mixamorig:HeadTop_End
						{
							OFFSET 0.000002 22.037384 7.501098
							CHANNELS 3 Xrotation Yrotation Zrotation
							End Site
							{
								OFFSET 0.000002 23.106583 -2.828261
							}
						}
					}
				}
				JOINT mixamorig:RightShoulder
				{
					OFFSET -4.569969 11.014923 -2.160886
					CHANNELS 3 Xrotation Yrotation Zrotation
					JOINT mixamorig:RightArm
					{
						OFFSET -10.592850 -0.524811 -2.232100
						CHANNELS 3 Xrotation Yrotation Zrotation
						JOINT mixamorig:RightForeArm
						{
							OFFSET -27.841520 0.000015 -0.000005
							CHANNELS 3 Xrotation Yrotation Zrotation
							JOINT mixamorig:RightHand
							{
								OFFSET -28.328838 -0.000015 0.000018
								CHANNELS 3 Xrotation Yrotation Zrotation
								JOINT mixamorig:RightHandThumb1
								{
									OFFSET -2.464806 -1.573990 2.681853
									CHANNELS 3 Xrotation Yrotation Zrotation
									JOINT mixamorig:RightHandThumb2
									{
										OFFSET -3.215195 -1.872772 1.924282
										CHANNELS 3 Xrotation Yrotation Zrotation
										JOINT mixamorig:RightHandThumb3
										{
											OFFSET -2.654823 -1.527985 1.512609
											CHANNELS 3 Xrotation Yrotation Zrotation
											JOINT mixamorig:RightHandThumb4
											{
												OFFSET -2.018822 -1.152008 1.108055
												CHANNELS 3 Xrotation Yrotation Zrotation
												End Site
												{
													OFFSET -1.888100 -1.145340 1.324313
												}
											}
										}
									}
								}
								JOINT mixamorig:RightHandIndex1
								{
									OFFSET -9.108284 -0.517868 2.259835
									CHANNELS 3 Xrotation Yrotation Zrotation
									JOINT mixamorig:RightHandIndex2
									{
										OFFSET -3.699997 0.000000 0.001215
										CHANNELS 3 Xrotation Yrotation Zrotation
										JOINT mixamorig:RightHandIndex3
										{
											OFFSET -2.850014 0.000031 -0.000522
											CHANNELS 3 Xrotation Yrotation Zrotation
											JOINT mixamorig:RightHandIndex4
											{
												OFFSET -2.772179 -0.000015 -0.000019
												CHANNELS 3 Xrotation Yrotation Zrotation
												End Site
												{
													OFFSET -2.772186 0.000000 -0.000502
												}
											}
										}
									}
								}
								JOINT mixamorig:RightHandMiddle1
								{
									OFFSET -9.532509 -0.000046 -0.000025
									CHANNELS 3 Xrotation Yrotation Zrotation
									JOINT mixamorig:RightHandMiddle2
									{
										OFFSET -3.700012 0.000000 0.003713
										CHANNELS 3 Xrotation Yrotation Zrotation
										JOINT mixamorig:RightHandMiddle3
										{
											OFFSET -2.949989 0.000015 -0.002054
											CHANNELS 3 Xrotation Yrotation Zrotation
											JOINT mixamorig:RightHandMiddle4
											{
												OFFSET -2.946625 0.000000 -0.000154
												CHANNELS 3 Xrotation Yrotation Zrotation
												End Site
												{
													OFFSET -2.946632 0.000015 -0.001136
												}
											}
										}
									}
								}
								JOINT mixamorig:RightHandRing1
								{
									OFFSET -9.103600 -0.043076 -1.865135
									CHANNELS 3 Xrotation Yrotation Zrotation
									JOINT mixamorig:RightHandRing2
									{
										OFFSET -3.379272 0.000000 -0.001054
										CHANNELS 3 Xrotation Yrotation Zrotation
										JOINT mixamorig:RightHandRing3
										{
											OFFSET -2.889694 0.000015 0.000379
											CHANNELS 3 Xrotation Yrotation Zrotation
											JOINT mixamorig:RightHandRing4
											{
												OFFSET -2.638809 0.000000 0.000941
												CHANNELS 3 Xrotation Yrotation Zrotation
												End Site
												{
													OFFSET -2.638802 0.000000 0.005160
												}
											}
										}
									}
								}
								JOINT mixamorig:RightHandPinky1
								{
									OFFSET -8.076675 -0.486710 -3.806280
									CHANNELS 3 Xrotation Yrotation Zrotation
									JOINT mixamorig:RightHandPinky2
									{
										OFFSET -3.600006 -0.000031 -0.003747
										CHANNELS 3 Xrotation Yrotation Zrotation
										JOINT mixamorig:RightHandPinky3
										{
											OFFSET -2.099976 -0.000015 -0.005740
											CHANNELS 3 Xrotation Yrotation Zrotation
											JOINT mixamorig:RightHandPinky4
											{
												OFFSET -2.115776 -0.000031 -0.003680
												CHANNELS 3 Xrotation Yrotation Zrotation
												End Site
												{
													OFFSET -2.115776 -0.000015 -0.003507
												}
											}
										}
									}
								}
							}
						}
					}
				}
				JOINT mixamorig:LeftShoulder
				{
					OFFSET 4.570447 11.014725 -2.160858
					CHANNELS 3 Xrotation Yrotation Zrotation
					JOINT mixamorig:LeftArm
					{
						OFFSET 10.592371 -0.524597 -2.232121
						CHANNELS 3 Xrotation Yrotation Zrotation
						JOINT mixamorig:LeftForeArm
						{
							OFFSET 27.841520 -0.000015 0.000023
							CHANNELS 3 Xrotation Yrotation Zrotation
							JOINT mixamorig:LeftHand
							{
								OFFSET 28.328835 -0.000046 0.000017
								CHANNELS 3 Xrotation Yrotation Zrotation
								JOINT mixamorig:LeftHandThumb1
								{
									OFFSET 2.466141 -1.576187 2.681734
									CHANNELS 3 Xrotation Yrotation Zrotation
									JOINT mixamorig:LeftHandThumb2
									{
										OFFSET 3.217804 -1.872055 1.916487
										CHANNELS 3 Xrotation Yrotation Zrotation
										JOINT mixamorig:LeftHandThumb3
										{
											OFFSET 2.656021 -1.528809 1.514508
											CHANNELS 3 Xrotation Yrotation Zrotation
											JOINT mixamorig:LeftHandThumb4
											{
												OFFSET 2.020889 -1.154068 1.115132
												CHANNELS 3 Xrotation Yrotation Zrotation
												End Site
												{
													OFFSET 1.908852 -1.150833 1.300490
												}
											}
										}
									}
								}
								JOINT mixamorig:LeftHandIndex1
								{
									OFFSET 9.109306 -0.518036 2.259871
									CHANNELS 3 Xrotation Yrotation Zrotation
									JOINT mixamorig:LeftHandIndex2
									{
										OFFSET 3.699997 -0.000015 -0.000323
										CHANNELS 3 Xrotation Yrotation Zrotation
										JOINT mixamorig:LeftHandIndex3
										{
											OFFSET 2.850006 -0.000015 0.000350
											CHANNELS 3 Xrotation Yrotation Zrotation
											JOINT mixamorig:LeftHandIndex4
											{
												OFFSET 2.774857 -0.000015 -0.000027
												CHANNELS 3 Xrotation Yrotation Zrotation
												End Site
												{
													OFFSET 2.774864 0.000000 -0.000099
												}
											}
										}
									}
								}
								JOINT mixamorig:LeftHandMiddle1
								{
									OFFSET 9.533401 0.000031 0.000044
									CHANNELS 3 Xrotation Yrotation Zrotation
									JOINT mixamorig:LeftHandMiddle2
									{
										OFFSET 3.699997 0.000000 -0.000231
										CHANNELS 3 Xrotation Yrotation Zrotation
										JOINT mixamorig:LeftHandMiddle3
										{
											OFFSET 2.949997 -0.000015 -0.000059
											CHANNELS 3 Xrotation Yrotation Zrotation
											JOINT mixamorig:LeftHandMiddle4
											{
												OFFSET 2.952866 0.000000 0.000062
												CHANNELS 3 Xrotation Yrotation Zrotation
												End Site
												{
													OFFSET 2.952858 0.000000 0.000228
												}
											}
										}
									}
								}
								JOINT mixamorig:LeftHandRing1
								{
									OFFSET 9.104530 -0.043030 -1.865075
									CHANNELS 3 Xrotation Yrotation Zrotation
									JOINT mixamorig:LeftHandRing2
									{
										OFFSET 3.150009 0.000000 0.000042
										CHANNELS 3 Xrotation Yrotation Zrotation
										JOINT mixamorig:LeftHandRing3
										{
											OFFSET 2.949989 -0.000015 0.000040
											CHANNELS 3 Xrotation Yrotation Zrotation
											JOINT mixamorig:LeftHandRing4
											{
												OFFSET 2.644318 -0.000015 0.000056
												CHANNELS 3 Xrotation Yrotation Zrotation
												End Site
												{
													OFFSET 2.644318 0.000000 0.000120
												}
											}
										}
									}
								}
								JOINT mixamorig:LeftHandPinky1
								{
									OFFSET 8.077782 -0.486877 -3.806258
									CHANNELS 3 Xrotation Yrotation Zrotation
									JOINT mixamorig:LeftHandPinky2
									{
										OFFSET 3.599960 0.000031 0.014726
										CHANNELS 3 Xrotation Yrotation Zrotation
										JOINT mixamorig:LeftHandPinky3
										{
											OFFSET 2.099998 0.000031 0.007705
											CHANNELS 3 Xrotation Yrotation Zrotation
											JOINT mixamorig:LeftHandPinky4
											{
												OFFSET 2.125504 0.000000 0.007515
												CHANNELS 3 Xrotation Yrotation Zrotation
												End Site
												{
													OFFSET 2.125511 0.000015 0.006257
												}
											}
										}
									}
								}
							}
						}
					}
				}
			}
		}
	}
	JOINT mixamorig:RightUpLeg
	{
		OFFSET -8.207787 -6.751663 -1.599560
		CHANNELS 3 Xrotation Yrotation Zrotation
		JOINT mixamorig:RightLeg
		{
			OFFSET -0.000001 -44.370129 0.345939
			CHANNELS 3 Xrotation Yrotation Zrotation
			JOINT mixamorig:RightFoot
			{
				OFFSET 0.000001 -44.423679 -3.043537
				CHANNELS 3 Xrotation Yrotation Zrotation
				JOINT mixamorig:RightToeBase
				{
					OFFSET -0.000003 -8.728673 10.710563
					CHANNELS 3 Xrotation Yrotation Zrotation
					JOINT mixamorig:RightToe_End
					{
						OFFSET -0.000002 -0.000676 9.278122
						CHANNELS 3 Xrotation Yrotation Zrotation
						End Site
						{
							OFFSET -0.000003 -0.000676 9.278122
						}
					}
				}
			}
		}
	}
	JOINT mixamorig:LeftUpLeg
	{
		OFFSET 8.207791 -6.751694 -1.599555
		CHANNELS 3 Xrotation Yrotation Zrotation
		JOINT mixamorig:LeftLeg
		{
			OFFSET -0.000002 -44.370033 0.346957
			CHANNELS 3 Xrotation Yrotation Zrotation
			JOINT mixamorig:LeftFoot
			{
				OFFSET 0.000000 -44.423672 -3.044393
				CHANNELS 3 Xrotation Yrotation Zrotation
				JOINT mixamorig:LeftToeBase
				{
					OFFSET -0.000003 -8.728668 10.710562
					CHANNELS 3 Xrotation Yrotation Zrotation
					JOINT mixamorig:LeftToe_End
					{
						OFFSET -0.000003 -0.000676 9.278135
						CHANNELS 3 Xrotation Yrotation Zrotation
						End Site
						{
							OFFSET -0.000003 -0.000677 9.278135
						}
					}
				}
			}
		}
	}
}
MOTION
Frames: 4
Frame Time: 0.033333
2.423685 103.204041 13.036878 0.535634 -2.478158 -7.348561 3.081346 -5.135274 0.763015 2.249844 -0.765927 0.473886 2.238040 -0.755939 0.451872 1.470237 -4.853130 9.831602 -5.342206 -12.739957 1.814337 0.000000 -0.000001 0.000000 -22.853244 5.933387 -10.423121 -13.509240 20.878411 -5.046410 -0.000004 20.301472 0.000005 -39.056494 18.630097 -22.165810 -0.697894 9.637358 -8.190268 8.871027 -36.055619 6.146738 -13.284635 -31.285357 -28.823125 -0.000002 -0.000000 0.000005 5.858939 -1.325852 51.375406 4.055208 -4.599787 82.690969 5.155914 -4.641299 96.154003 0.000000 -0.000000 0.000003 2.449965 -6.466421 73.515088 6.023120 -4.396129 107.556744 1.292907 -3.262236 43.751914 0.000001 0.000003 0.000000 1.043539 -7.062063 91.922270 4.360568 -4.665926 86.248706 1.177192 -3.089584 41.365828 -0.000001 0.000002 0.000002 3.632196 -14.866477 97.830603 1.638545 -3.611135 51.511787 1.798360 -3.835704 53.330954 -0.000000 0.000001 -0.000000 3.351086 -24.443777 2.021686 2.196429 -55.619504 -3.308009 0.000750 -98.045979 0.000892 10.069848 -16.490240 -10.695079 0.006624 -7.777813 8.700810 27.431355 39.959895 -39.919720 -16.907568 47.486009 28.423885 -0.000001 0.000004 -0.000007 8.806029 3.443369 -79.249025 5.113818 5.809572 -82.680485 6.477639 5.810559 -96.163941 -0.000002 -0.000000 -0.000001 3.330391 7.701519 -74.225633 7.616123 5.582948 -107.597725 4.063067 5.573333 -72.166624 -0.000000 -0.000001 -0.000000 1.223424 7.451271 -79.688562 6.277621 5.834832 -94.180891 2.911955 5.060848 -59.796954 0.000000 -0.000001 -0.000000 4.067492 16.186867 -84.845354 2.647608 4.669940 -54.733543 5.150772 5.603584 -81.142292 0.000002 -0.000000 -0.000001 -35.832105 -8.063856 -20.483358 54.873661 -9.065327 -1.489395 22.012351 -13.409861 18.599647 3.074785 -0.000003 -0.000012 0.000000 -0.000002 0.000001 -20.061060 10.829207 23.212196 30.618608 6.723338 0.227334 -4.029725 0.472040 -3.411431 -2.392331 -0.000005 -0.000002 0.000002 -0.000003 -0.000001 
-0.680584 103.272224 13.915544 1.554335 -0.326611 -5.963850 1.462227 -5.389609 -1.715454 1.273926 -0.823627 0.243942 1.260575 -0.820405 0.233231 1.709288 -5.259807 11.914203 -1.699383 -12.016276 0.901978 -0.000001 -0.000002 0.000001 -23.289514 0.178150 -12.490178 16.937839 30.071591 -14.255903 -0.000001 0.000001 0.000001 -30.270374 19.477084 -5.915670 -0.697902 9.637370 -8.190256 8.871015 -36.055612 6.146716 -13.284649 -31.285350 -28.823118 0.000003 0.000002 0.000003 5.858935 -1.325829 51.375375 4.055203 -4.599804 82.690990 5.155917 -4.641292 96.153969 0.000000 -0.000001 0.000000 2.449977 -6.466407 73.515088 6.023120 -4.396122 107.556758 1.292895 -3.262231 43.751890 -0.000000 -0.000002 -0.000000 1.043527 -7.062055 91.922291 4.360575 -4.665925 86.248719 1.177197 -3.089578 41.365822 0.000000 -0.000003 0.000000 3.632189 -14.866470 97.830616 1.638526 -3.611133 51.511784 1.798382 -3.835702 53.330943 -0.000001 -0.000000 0.000001 2.697932 -25.065029 -0.555642 10.446768 -52.790532 3.853841 0.000592 -99.311797 0.000732 3.785590 -14.959767 -12.902913 0.006616 -7.777813 8.700814 27.431353 39.959895 -39.919727 -16.907536 47.486002 28.423860 -0.000001 0.000006 0.000002 8.806021 3.443380 -79.248998 5.113796 5.809577 -82.680464 6.477641 5.810572 -96.163920 0.000004 -0.000000 -0.000000 3.330383 7.701520 -74.225619 7.616133 5.582954 -107.597725 4.063075 5.573329 -72.166652 -0.000002 -0.000000 -0.000001 1.223409 7.451273 -79.688562 6.277618 5.834835 -94.180871 2.911954 5.060859 -59.796947 -0.000001 0.000001 0.000000 4.067481 16.186870 -84.845368 2.647609 4.669944 -54.733526 5.150770 5.603580 -81.142292 0.000001 -0.000001 -0.000005 -20.391668 -5.817829 -16.430609 28.356673 -6.320598 -1.190437 24.384452 -8.031733 18.899041 -3.169341 -0.000000 -0.000001 0.000001 0.000000 -0.000000 -21.136273 13.185386 18.455076 35.101923 3.594398 0.301048 -6.541219 1.388430 -8.146992 -2.498410 -0.000005 -0.000002 0.000004 0.000002 -0.000000 
-3.538014 102.253067 14.542221 2.011998 2.077831 -5.356333 0.687936 -5.645138 -2.492699 0.964019 -0.865272 0.336950 0.952214 -0.863621 0.328467 1.092644 -5.099329 11.800234 -0.105816 -10.715167 0.345568 0.000000 0.000001 -0.000000 -23.957457 -3.996449 -15.169712 33.753121 25.674533 -19.345587 0.000006 11.529694 0.000001 -3.335454 21.363840 -2.262442 -0.697919 9.637368 -8.190274 8.871034 -36.055640 6.146737 -13.284642 -31.285350 -28.823135 -0.000001 -0.000001 -0.000002 5.858933 -1.325842 51.375389 4.055176 -4.599791 82.690976 5.155922 -4.641283 96.154010 0.000003 -0.000002 -0.000002 2.449976 -6.466407 73.515116 6.023114 -4.396123 107.556744 1.292910 -3.262249 43.751893 0.000007 0.000000 -0.000001 1.043520 -7.062058 91.922298 4.360565 -4.665943 86.248706 1.177189 -3.089578 41.365828 -0.000001 0.000002 0.000001 3.632170 -14.866465 97.830609 1.638540 -3.611141 51.511801 1.798379 -3.835702 53.330947 -0.000003 -0.000000 0.000000 2.183324 -24.688214 -2.712885 12.863565 -49.971191 4.268623 0.000427 -101.719883 0.000564 1.435071 -14.279129 -14.719160 0.006618 -7.777813 8.700815 27.431346 39.959892 -39.919713 -16.907565 47.485995 28.423872 -0.000001 0.000005 -0.000005 8.806020 3.443382 -79.249018 5.113816 5.809566 -82.680471 6.477628 5.810562 -96.163948 -0.000000 0.000000 -0.000000 3.330378 7.701523 -74.225626 7.616126 5.582949 -107.597725 4.063068 5.573331 -72.166659 0.000002 0.000000 -0.000000 1.223405 7.451271 -79.688562 6.277621 5.834831 -94.180871 2.911953 5.060855 -59.796954 -0.000002 0.000000 -0.000000 4.067478 16.186864 -84.845354 2.647607 4.669942 -54.733550 5.150768 5.603585 -81.142292 -0.000001 -0.000001 0.000000 -12.544143 -3.899102 -13.492532 15.127131 -8.747283 -1.073839 25.198074 -8.694694 7.917916 -18.046058 -0.457081 6.601645 -0.000000 -0.000002 -0.000000 -19.664166 13.654581 13.149208 35.697765 5.042611 0.591646 -10.239298 5.540456 -8.164681 -3.456871 0.000016 -0.000001 0.000003 0.000004 -0.000000 
-6.172400 100.490616 14.478222 1.824237 4.479511 -5.779448 1.222966 -5.919489 -1.317834 1.406292 -0.894517 0.625032 1.397451 -0.889829 0.608932 0.203920 -4.238703 9.914983 -1.780053 -8.185107 0.144145 0.000000 0.000002 -0.000000 -24.446365 -4.970328 -16.788617 33.496037 15.197693 -16.448427 0.000003 44.121362 0.000008 16.871348 14.888165 -9.025288 -0.697901 9.637364 -8.190267 8.871038 -36.055609 6.146739 -13.284639 -31.285374 -28.823135 -0.000002 0.000001 0.000000 5.858941 -1.325830 51.375385 4.055190 -4.599804 82.690997 5.155923 -4.641295 96.153996 -0.000003 -0.000000 0.000002 2.449982 -6.466405 73.515102 6.023114 -4.396113 107.556737 1.292906 -3.262238 43.751907 0.000003 -0.000001 0.000001 1.043544 -7.062045 91.922298 4.360564 -4.665910 86.248733 1.177182 -3.089571 41.365818 0.000001 -0.000002 0.000002 3.632203 -14.866465 97.830609 1.638532 -3.611145 51.511794 1.798366 -3.835717 53.330947 0.000001 0.000002 -0.000001 2.081791 -23.743469 -3.459081 10.104418 -47.660391 -1.238303 0.000414 -103.639965 0.000543 3.874281 -15.375785 -15.480110 0.006610 -7.777816 8.700819 27.431353 39.959895 -39.919717 -16.907565 47.486013 28.423870 -0.000001 0.000005 -0.000003 8.806023 3.443376 -79.249039 5.113809 5.809576 -82.680471 6.477631 5.810544 -96.163927 -0.000003 -0.000001 -0.000000 3.330387 7.701514 -74.225633 7.616121 5.582951 -107.597725 4.063069 5.573334 -72.166659 -0.000001 -0.000002 0.000000 1.223413 7.451275 -79.688562 6.277619 5.834832 -94.180871 2.911948 5.060864 -59.796933 0.000000 -0.000001 -0.000003 4.067479 16.186879 -84.845368 2.647617 4.669947 -54.733526 5.150774 5.603587 -81.142279 0.000000 -0.000001 -0.000000 -11.714051 -4.107147 -11.509919 19.359801 -9.159484 -1.217389 8.553288 -11.439931 10.653725 -14.375417 -0.000002 -0.000005 -0.000000 0.000002 0.000001 -19.086644 11.175089 10.186373 35.971710 9.400995 0.920844 -14.201161 10.680609 -5.191483 -5.750866 0.000025 -0.000001 0.000003 -0.000001 -0.000000 
